<svg xmlns="http://www.w3.org/2000/svg" width="325.94mm" height="164.65mm" viewBox="0 0 1231.9 622.3"><defs><linearGradient id="a" x1="584.07" x2="585.13" y1="299.15" y2="557.95" gradientUnits="userSpaceOnUse"><stop stop-color="#3a464e" offset="0"/><stop stop-color="#3a464e" stop-opacity="0" offset="1"/></linearGradient></defs><path fill="url(#a)" d="M611.47 208.73s.04-.5 0-.02c-.3 3.07-2.28 19.8 2.74 20 0 0-2.58.6-3.33 10.85 0 0-1.42 6.83 1.87 40.65 0 0 .75 30.63 2.2 42.6 0 0-.38-3.94 2.1 47.4 0 0 5.96 116.53 6.27 127.03 0 0 1.5 28.63 1.57 37.82l-50.75.12s-48.56-19.3-80.68-53.25c0 0-35.63-36.94-51.63-75.3 0 0-12.43-26.76-17.86-58.4 0 0-5.25-26.86-2.5-61.6 0 0 1.12-25.45 10.68-54.64 0 0 10.57-32.62 26.38-56.75 0 0 18-30 48.37-55.75 0 0 39.7-32.87 86.44-47.5 0 0 42.82-15.68 93.95-10.68 0 0 44.56 2.3 89.2 25.12 0 0 46.8 23.8 78.18 61.13 0 0 19.5 18.75 35.85 57.88 0 0 14.42 30.82 18.54 66.82 0 0 4.88 39.75-.5 73.2 0 0-1.93 21.8-18.68 62.18 0 0-15.44 37.3-45.5 68.8 0 0-25.38 26.95-70.38 58.32h-62.9c-1.18-6.8-1.83-12.86-1.83-12.86s-19.8-99.7-17.33-182.1c0 0 1.42-68.58 3.9-104.3 0 0-.1-3.35-3.37-6.45 0 0 5.48-5.48 4.34-11.22 0 0 .18-5.1-.14-10.26-.3-4.96-.72-8.77-.84-10.7 0 0-.98-5.38 2.64-14.57 0 0 7.96-14.23 19.1-18.65.06-.1 8.94-3.12 15.9-2.92 0 0 34.57.26 39.07 1.4 0 0 72.05 13.1 73.38 11.77-2.83-9.55-54.27-34.03-54.27-34.03s-48.34-17.24-53.03-17.24c-2.75-.75-22.72-5.7-42.07-8.04 0 0-75.48-6.55-83.97 2.2 0 0-3.9 3.62-4.77 8.3 0 0 .35 3.9-3 6.2.02-.04-6.33 1.76-11.14 1.06 0 0-10.17 1.23-12.02-3.1 0 0-3-6-10-11.22-4.32-1.95-9.27-1.5-9.27-1.5s-17.77-.9-20.5.8c-8.58 3.8-10.57 18.2-10.57 18.2s-1.72 37.74.93 52.46c0 0 1.46 8.87 8.9 12.33 0 0 24.6 3 30.6-.18 0 0-.1 1.86 10.7-12.55 0 0 2.2-3.9 14.75-2.48 0 0 12.9-.57 14.23 21.12.04.8.08 1.63.1 2.48"/><g fill="#8d8d8d" style="font-feature-settings:normal;font-variant-caps:normal;font-variant-ligatures:normal;font-variant-numeric:normal"><path d="M512.36 560.84h.53q1.98 0 2.98-1.07 1-1.1 1-3.25 0-1.93-1-2.9-1-.98-2.95-.98h-.57zm0 12.75h.57q2.24 0 3.34-1.2 1.1-1.2 1.1-3.7 0-2.37-1.14-3.52-1.14-1.18-3.42-1.18h-.44zm-3.28 3.2v-27.33h3.36q3.75 0 5.78 1.8 2.03 1.78 2.03 5.04 0 1.9-.84 3.3-.8 1.4-2.57 2.47 2.1.92 3.05 2.54.96 1.6.96 4.2 0 3.6-2.02 5.8-2 2.2-5.27 2.2zM525.37 549.48h3.4v20.92q0 1.76.68 2.7.7.9 2.03.9 1.37 0 2.07-.9.7-.92.7-2.7v-20.92h3.37v20.92q0 3.16-1.68 5.04-1.66 1.85-4.46 1.85-2.9 0-4.5-1.82t-1.6-5.08zM542.95 576.8v-27.32h3.36v27.32zM551.82 576.8v-27.32h3.4v24.04h6.72v3.28zM567.95 573.56h.6q2.94 0 4.3-2.52 1.4-2.52 1.4-7.87 0-5.5-1.38-8-1.37-2.5-4.3-2.5h-.62zm-3.36 3.24v-27.32h3.92q4.64 0 6.93 3.4 2.3 3.4 2.3 10.25t-2.3 10.27q-2.3 3.4-6.93 3.4zM582.17 576.8v-27.32h3.36v27.32zM590.96 549.48h2.9l4.7 13.36q.4 1.05 1.17 3.5.3.97.47 1.46-.1-1.5-.16-3.1-.04-1.57-.04-3.38v-11.84h3.17v27.32h-2.93l-4.67-13.2q-.25-.7-.84-2.44-.57-1.74-.8-2.46.1 1.48.14 3.06.05 1.57.05 3.36v11.68h-3.16zM620.94 575.7q-1.13.8-2.27 1.22-1.1.4-2.28.4-4.3 0-6.75-3.7-2.42-3.7-2.42-10.33 0-6.87 2.28-10.58 2.32-3.7 6.52-3.7 1.35 0 2.56.46t2.36 1.44v3.9q-1.23-1.34-2.42-1.98-1.2-.65-2.46-.65-2.58 0-3.95 2.85-1.36 2.85-1.36 8.28 0 5.2 1.37 8 1.38 2.8 3.92 2.8.3 0 .72-.08.43-.08.88-.2v-8.65h-2.48v-3.16h5.8zM630.96 549.48h3.48l2.87 16.13q.14.7.26 1.6.14.87.28 2.12.1-1.07.2-1.95.13-.88.24-1.42l2.88-16.47h2.7l2.82 16.1q.2 1.03.33 2 .15.92.23 1.74.1-1.17.2-2.12.15-.98.33-1.8l2.87-15.92h3.47l-5.58 27.32h-2.8l-2.65-15.13q-.1-.53-.22-1.45-.1-.92-.3-2.62-.14 1.45-.26 2.4-.13.94-.27 1.65l-2.67 15.15h-2.8zM657.4 576.8v-27.32h3.36v27.32zM668.52 576.8v-24.08h-4.36v-3.24h12.07v3.24h-4.35v24.08zM679.36 576.8v-27.32h3.36v12h5.53v-12h3.36v27.32h-3.35v-12.17h-5.53v12.17zM704.36 576.8v-27.32h3.36v27.32zM713.14 549.48h2.9l4.7 13.36q.4 1.05 1.17 3.5.32.97.48 1.46-.1-1.5-.16-3.1-.04-1.57-.04-3.38v-11.84h3.17v27.32h-2.93l-4.67-13.2q-.25-.7-.84-2.44-.56-1.74-.8-2.46.1 1.48.15 3.06.05 1.57.05 3.36v11.68h-3.16zM732.9 576.8v-24.08h-4.37v-3.24h12.07v3.24h-4.35v24.08zM743.77 576.8v-27.32h9.73v3.2h-6.4v8.2h5.9v3.2h-5.9v9.48h6.7v3.24zM770.7 575.7q-1.13.8-2.27 1.22-1.1.4-2.28.4-4.3 0-6.74-3.7-2.4-3.7-2.4-10.33 0-6.87 2.27-10.58 2.3-3.7 6.5-3.7 1.36 0 2.57.46 1.2.47 2.36 1.44v3.9q-1.23-1.34-2.42-1.98-1.2-.65-2.46-.65-2.58 0-3.95 2.85t-1.37 8.28q0 5.2 1.37 8t3.9 2.8q.32 0 .73-.08.43-.08.88-.2v-8.65h-2.48v-3.16h5.8zM778.65 561.12h.3q1.44 0 2.18-1 .76-1 .76-2.93 0-2.23-.8-3.38-.8-1.18-2.3-1.18h-.15zm-3.32 15.68v-27.32h3.24q3.1 0 4.92 1.97 1.83 1.98 1.83 5.32 0 2.07-.78 3.5-.78 1.44-2.42 2.34 1.25.65 2.07 2.17.82 1.5 1.62 4.75l1.72 7.28h-3.44l-1.52-6.52q-.77-3.22-1.6-4.65-.8-1.42-1.84-1.42-.1 0-.2.03-.08 0-.3.05v12.52zM790.76 576.8v-27.32h3.36v27.32zM801.88 576.8v-24.08h-4.36v-3.24h12.07v3.24h-4.36v24.08zM810.5 549.48h3.58l2.76 10.08 2.7-10.08h3.6l-4.66 14.7v12.63h-3.32v-12.63z"/></g><g fill="#8d8d8d"><path d="M476.05 334.02q-4.96 2.83-10.4 4.28-5.42 1.45-11.2 1.45-6.65 0-12.18-2.02-5.5-2-9.73-6-4.24-4-6.5-9.46-1.1-2.74-1.65-5.6-.58-2.9-.58-6.1 0-13.16 8.76-21.2 8.8-8.07 23.2-8.07 5.26 0 10.14 1.13 4.93 1.13 9.65 3.48v13.25q-4.64-3.03-9.44-4.52-4.8-1.5-9.4-1.5-8.57 0-13.5 4.64-4.88 4.65-4.88 12.8 0 7.9 4.7 12.63 4.67 4.73 12.58 4.73 5.17 0 10.2-1.78 5.06-1.82 10.22-5.33zM496.16 310.57q0 7.5 4.52 12.4 4.56 4.88 11.58 4.88 6.98 0 11.54-4.85 4.6-4.88 4.6-12.43 0-7.63-4.55-12.47-4.53-4.9-11.6-4.9-6.97 0-11.53 4.9-4.57 4.88-4.57 12.47zm-14.54 0q0-6.34 2.22-11.66 2.22-5.36 6.62-9.52 4.16-3.92 9.7-6.02 2.62-.92 5.72-1.45 3.15-.5 6.38-.5 3.4 0 6.38.47 3.03.5 5.8 1.54 5.46 1.94 9.74 6.06 4.32 4.08 6.58 9.5 2.26 5.35 2.26 11.6 0 6.35-2.22 11.68-2.22 5.32-6.58 9.36-4.32 4-9.85 6.1-5.5 2.05-12.1 2.05-6.67 0-12.08-2-5.42-2.03-9.74-6.07-4.27-4.08-6.58-9.48-2.26-5.4-2.26-11.63zM565.22 303.27v35.48h-13.97v-56.47h12.4l30.27 33.66v-33.66h13.96v56.47h-11.06zM618.02 334.27v-12.55q6.26 3.87 10.66 5.5 4.44 1.6 8.6 1.6t6.3-1.25q2.13-1.3 2.13-3.8 0-1.93-1.32-3.22-1.3-1.17-6.22-2.95-12.07-4.24-16.63-8.64-4.52-4.44-4.52-11.3 0-7.23 5.94-11.75 5.94-4.5 15.38-4.5 4.93 0 9.73 1.16 4.85 1.17 9.5 3.43v11.58q-5.74-2.87-10.3-4.24-4.53-1.37-8.16-1.37-4.1 0-6.2 1.17-2.08 1.17-2.08 3.35 0 1.73 1.85 3.3 1.9 1.53 5.77 3l2.47.92q8.04 2.94 11.6 5.16 3.54 2.18 5.48 5.77 1.94 3.56 1.94 8.32 0 7.75-5.93 12.27-5.9 4.52-16.4 4.52-5.3 0-10.13-1.33-4.8-1.33-9.45-4.16zM682.03 338.75v-45.98h-18.7v-10.5h52.28v10.5h-18.68v45.98zM743.03 305.45q3.92 0 5.8-1.6 1.95-1.67 1.95-5.02 0-3.2-1.98-4.84-1.98-1.7-5.77-1.7h-6.78v13.15zm-20.95 33.3v-56.47h20.87q11.46 0 16.95 4.04 5.53 4 5.53 12.35 0 4.64-2.42 8-2.4 3.3-7.42 5.64 2.1.74 3.76 2.56 1.65 1.77 2.94 4.56l9 19.33h-15.94l-7.18-16.27q-1.7-3.9-3.92-5.32-2.22-1.46-6.34-1.46l-.84.04-.8.04v22.97zM828.68 282.28v32.33q0 11.88-7.06 18.54-7.07 6.62-19.66 6.62-12.64 0-19.66-6.62-7.02-6.66-7.02-18.53V282.3h14.2v31.77q0 6.74 3.23 10.33 3.24 3.55 9.38 3.55 6 0 9.28-3.55 1.58-1.78 2.38-4.32.8-2.58.8-6v-31.78zM888.9 334.02q-4.96 2.83-10.4 4.28-5.42 1.45-11.2 1.45-6.66 0-12.18-2.02-5.5-2-9.73-6-4.25-4-6.5-9.46-1.1-2.74-1.67-5.6-.56-2.9-.56-6.1 0-13.16 8.76-21.2 8.8-8.07 23.2-8.07 5.25 0 10.14 1.13 4.92 1.13 9.65 3.48v13.25q-4.65-3.03-9.45-4.52-4.8-1.5-9.4-1.5-8.56 0-13.5 4.64-4.87 4.65-4.87 12.8 0 7.9 4.68 12.63t12.6 4.73q5.16 0 10.2-1.78 5.05-1.82 10.22-5.33zM910.98 338.75v-45.98h-18.7v-10.5h52.28v10.5h-18.7v45.98zM951.1 338.75v-56.47h14.57v56.47zM988.76 310.57q0 7.5 4.52 12.4 4.56 4.88 11.6 4.88 6.97 0 11.53-4.85 4.6-4.88 4.6-12.43 0-7.63-4.55-12.47-4.52-4.9-11.58-4.9-7 0-11.55 4.9-4.56 4.88-4.56 12.47zm-14.53 0q0-6.34 2.22-11.66 2.22-5.36 6.62-9.52 4.16-3.92 9.7-6.02 2.6-.92 5.72-1.45 3.14-.5 6.37-.5 3.4 0 6.37.47 3.03.5 5.82 1.54 5.45 1.94 9.72 6.06 4.32 4.08 6.58 9.5 2.26 5.35 2.26 11.6 0 6.35-2.22 11.68-2.22 5.32-6.58 9.36-4.3 4-9.84 6.1-5.5 2.05-12.1 2.05-6.67 0-12.08-2-5.4-2.03-9.73-6.07-4.28-4.08-6.58-9.48-2.27-5.4-2.27-11.63zM1057.83 303.27v35.48h-13.97v-56.47h12.4l30.27 33.66v-33.66h13.97v56.47h-11.07z"/></g><g fill="#b5281a"><path d="M120.8 341.22v-72.86h18.27v32.44l24.74-32.45h20.48l-25.83 33.7 32.24 39.17H167L139.06 307v34.22zM194.43 341.22v-72.86h48.75v13.43h-30.52v14.84h29.17v13.54h-29.17v17.4h31.4v13.64zM255.68 341.22v-72.86h48.75v13.43H273.9v14.84h29.18v13.54H273.9v17.4h31.42v13.64zM334.96 295.44v45.78h-18.02v-72.86h16l39.05 43.43v-43.44h18v72.86h-14.26z"/></g><g fill="#c4c4c4"><path d="M712.23 378.4v-23h-9.34v-5.25H729v5.25h-9.34v23zM729.13 378.4l11.9-14.64-11.2-13.6h8.9l6.73 8.27 6.78-8.28h8.84l-11.28 13.53 12.3 14.7h-9.07l-7.57-9.2-7.53 9.2zM786.65 361.74q1.96 0 2.9-.8.97-.83.97-2.5 0-1.6-.98-2.43-1-.84-2.9-.84h-3.38v6.58zm-10.47 16.65v-28.24h10.43q5.74 0 8.5 2 2.75 2 2.75 6.2 0 2.3-1.2 4-1.22 1.64-3.72 2.8 1.05.37 1.87 1.28.83.9 1.48 2.28l4.5 9.67h-7.97l-3.6-8.14q-.83-1.96-1.95-2.67-1.1-.73-3.16-.73l-.44.02h-.4v11.5zM820 376.3q-1.93 1.25-4.13 1.88-2.18.62-4.64.62-4.96 0-7.77-2.7-2.78-2.7-2.78-7.5 0-4.4 2.72-7.05 2.74-2.67 7.33-2.67 4.48 0 7.08 2.87 2.63 2.86 2.63 7.93v.2H806.9v.08q0 2.26 1.55 3.6 1.55 1.33 4.25 1.33 1.88 0 3.64-.66.93-.32 1.8-.8.92-.45 1.85-1.12zm-13.07-9.34l7.43-.02q0-.9-.28-1.62t-.85-1.3q-.95-1.04-2.46-1.04-1.54 0-2.55 1.03-1 1.04-1.3 2.96zM827.6 381.83q0 1.15 1.1 1.76 1.14.6 3.36.6 2.18 0 3.35-.6 1.2-.6 1.2-1.73 0-1.03-1.17-1.63t-3.25-.6q-2.2 0-3.4.56-1.18.58-1.18 1.63zm4.46-18.9q-1.53 0-2.48.92-.95.9-.95 2.36t.93 2.37q.95.9 2.5.9 1.57 0 2.5-.88.93-.92.93-2.4t-.94-2.35q-.93-.9-2.5-.9zm-4.02 9.2q-2.54-.73-3.8-2.27-1.22-1.55-1.22-3.93 0-3.23 2.56-4.95 1.25-.85 3.13-1.27 1.9-.43 4.3-.43h9.74v4h-2.7q.44.7.66 1.53.24.82.24 1.73 0 2.58-1.53 4.12-1.5 1.53-4.57 2.08l-1.92.24q-2.37.22-2.37 1.3 0 1 3.27 1.34l2 .24q3.06.4 4.66 1.83 1.6 1.43 1.6 3.8 0 3.08-2.57 4.7-2.6 1.6-7.64 1.6-4.66 0-7.3-1.48-2.6-1.5-2.6-4.15 0-1.65 1.28-2.86 1.3-1.22 3.82-1.9-1.07-.3-1.68-.92-.54-.58-.54-1.43 0-1.07.78-1.82.8-.74 2.42-1.1zM845.34 375.16q0-1.5 1.03-2.56 1.05-1.07 2.58-1.07 1.52 0 2.6 1.05.5.52.77 1.15.27.62.27 1.43 0 1.5-1.1 2.54-1.07 1.05-2.55 1.05-1.5 0-2.56-1.03-1.06-1.05-1.06-2.56zM875.7 373.23h4.1q2.75 0 3.92-.77 1.17-.76 1.17-2.54 0-1.82-1.26-2.68-1.23-.87-3.87-.87h-4.06zm3.66-11.9q1.9 0 2.85-.73.96-.73.96-2.2 0-1.66-.97-2.45-.96-.78-2.84-.78h-3.65v6.15zM868.6 378.4v-28.24h10.42q5.57 0 8.4 1.84 2.84 1.8 2.84 5.4 0 1.86-.95 3.28t-2.8 2.26q3 .9 4.43 2.74 1.45 1.84 1.45 4.62 0 4.04-2.8 6.08-2.8 2.02-8.36 2.02zM923.04 350.16v16.17q0 5.93-3.53 9.26-3.52 3.3-9.82 3.3-6.32 0-9.83-3.3-3.5-3.34-3.5-9.27v-16.17h7.1v15.88q0 3.37 1.6 5.17 1.62 1.8 4.7 1.8 3 0 4.63-1.8.8-.88 1.2-2.15.4-1.3.4-3v-15.9zM933.7 378.4v-28.24h6.43v28.23zM949.46 378.4v-.92q7.37-8.72 9.55-12.33 1.08-1.78 1.62-3.33.55-1.55.55-2.87 0-2.05-1.1-3.08-1.1-1.03-3.36-1.03-1.35 0-2.92.74-1.55.75-3.86 2.5v-5.56q2.1-1.42 4.32-2.12 2.24-.73 4.52-.73 4.2 0 6.68 2.2 2.5 2.18 2.5 5.9 0 2.86-1.87 6.2-1.88 3.34-6.64 8.6h9.6v5.82zM981.95 365.78q-1.63 0-2.54 1.15-.88 1.13-.88 3.2 0 2.2.87 3.32.85 1.1 2.55 1.1t2.56-1.12.88-3.3q0-2.05-.9-3.2-.9-1.15-2.53-1.15zm-3.1-7.9q0 1.8.8 2.8t2.3.98q1.47 0 2.3-1 .85-.98.85-2.77 0-1.95-.8-2.92t-2.35-.97q-1.55 0-2.34.98-.76.95-.76 2.9zm-2.43 5.48q-1.74-.9-2.6-2.44-.87-1.56-.87-3.56 0-3.43 2.46-5.53 2.5-2.12 6.55-2.12 4.04 0 6.54 2.15 2.5 2.12 2.5 5.5 0 2.05-.88 3.57-.88 1.5-2.64 2.44 2.18 1 3.3 2.8 1.1 1.8 1.1 4.26 0 3.82-2.7 6.16-1.36 1.15-3.15 1.73-1.8.6-4.08.6-4.52 0-7.23-2.32-2.68-2.32-2.68-6.16 0-2.46 1.1-4.24 1.08-1.8 3.28-2.82zM1007.4 362.15l.28-1.35q.08-.63.1-.77 0-.34 0-.48 0-2.1-.92-3.3-.9-1.2-2.5-1.2-1.66 0-2.67 1.1-1.02 1.1-1.02 2.9 0 1.93.97 3.1.97 1.15 2.66 1.15.88 0 1.6-.24.73-.26 1.5-.9zm-1.63 5.05q-.27.12-.65.24-.36.1-.75.2-.38.06-.76.1-.38.04-.82.04-3.7 0-6.02-2.34-2.3-2.36-2.3-6.14 0-4.2 2.73-6.92 2.73-2.7 7.03-2.7 4.48 0 7.15 2.8 2.68 2.8 2.68 7.57 0 5.7-3.3 10.82-3.26 5.1-8.9 8.07l-3.34-4.18q2.64-1.6 4.46-3.5 1.84-1.86 2.8-4.06zM1017.7 377.06v-5.45q1.82 1.16 3.3 1.7 1.52.55 3 .55 2.38 0 3.6-.97 1.22-.97 1.22-2.76 0-1.72-1.23-2.75-.66-.54-1.5-.83-.83-.3-1.94-.3v-5.04q1.92 0 3.13-1 1.2-1.02 1.2-2.64 0-1.37-1.15-2.24-1.15-.86-3.1-.86-1.4 0-2.76.38-1.36.36-2.8 1.2v-4.85q1.38-.72 3.14-1.1 1.75-.4 3.93-.4 4.12 0 6.56 1.97 2.44 1.96 2.44 5.2 0 2.1-1 3.66-1 1.53-3.17 2.73 2.48.96 3.7 2.8 1.26 1.84 1.26 4.56 0 3.76-2.72 6.02-2.7 2.26-7.37 2.26-2.5 0-4.44-.47-1.92-.46-3.33-1.37zM1040.3 371.9q1.5.95 3.03 1.45 1.53.5 3 .5 2.45 0 3.76-1.08 1.32-1.1 1.32-3.17 0-1.84-1.53-3-1.53-1.14-4.1-1.14-.62 0-.9.04-.26.02-.8.12-.53.08-.97.18-.45.1-1.13.3v-15.94h15.25v5.63h-9.58v4.94l.46-.02.73-.02q4.4 0 6.9 2.44 2.52 2.42 2.52 6.66 0 4.18-2.86 6.64-2.85 2.46-7.75 2.46-2.26 0-4.06-.36t-3.3-1.13zM730.1 427.7q-2.48 1.4-5.2 2.14-2.7.73-5.6.73-3.33 0-6.1-1-2.74-1.02-4.86-3.02t-3.25-4.72q-.55-1.38-.83-2.8-.3-1.46-.3-3.06 0-6.58 4.4-10.6 4.4-4.03 11.6-4.03 2.62 0 5.06.57 2.47.57 4.83 1.74v6.62q-2.32-1.5-4.72-2.26-2.4-.74-4.7-.74-4.3 0-6.75 2.32t-2.45 6.4q0 3.95 2.34 6.3 2.33 2.37 6.3 2.37 2.57 0 5.1-.9 2.52-.9 5.1-2.65zM742.5 419.73h8.35L746.9 409zm-11.82 10.33l12.3-28.23h8.17l11 28.23h-7.5l-2-5.5h-12.18l-2.26 5.5zM775.36 430.06v-28.23h7.06v22.78h12.17v5.46zM797.24 430.06v-19.13h6.03v19.13zm-.22-25.33q0-1.33.93-2.28.94-.95 2.3-.95 1.37 0 2.3.93.93.93.93 2.3 0 1.33-.93 2.28-.93.94-2.3.94-1.36 0-2.3-.95-.93-.96-.93-2.27zM823.76 429.2q-1.3.58-2.83.9-1.53.32-3.3.32-5.1 0-8.14-2.66-3.02-2.67-3.02-7.25 0-4.5 2.97-7.23 3-2.77 7.95-2.77 1.6 0 3.1.32 1.5.3 2.94.93v4.7q-1.46-.58-2.77-.9-1.3-.33-2.36-.33-2.55 0-4.03 1.42-1.45 1.4-1.45 3.87 0 2.5 1.47 3.9 1.5 1.4 4.25 1.4 1.15 0 2.43-.3 1.3-.3 2.78-.97zM827 426.83q0-1.5 1.04-2.56 1.05-1.07 2.58-1.07 1.52 0 2.6 1.05.5.52.77 1.15t.26 1.43q0 1.5-1.1 2.54-1.06 1.05-2.54 1.05-1.5 0-2.56-1.03-1.05-1.06-1.05-2.57zM858.76 417.45q-1.63 0-2.54 1.15-.9 1.13-.9 3.2 0 2.2.88 3.32.86 1.1 2.56 1.1t2.56-1.12q.87-1.13.87-3.3 0-2.05-.92-3.2-.9-1.15-2.52-1.15zm-3.1-7.9q0 1.8.8 2.8t2.3.98q1.47 0 2.3-1 .85-.98.85-2.77 0-1.94-.78-2.9t-2.36-.98q-1.55 0-2.34.97-.77.95-.77 2.9zm-2.43 5.48q-1.74-.9-2.6-2.44-.87-1.57-.87-3.57 0-3.43 2.46-5.53 2.48-2.12 6.54-2.12 4.04 0 6.54 2.14 2.52 2.12 2.52 5.5 0 2.05-.9 3.57-.87 1.48-2.63 2.43 2.17 1 3.28 2.8 1.1 1.8 1.1 4.26 0 3.8-2.7 6.15-1.35 1.15-3.14 1.73-1.8.6-4.08.6-4.52 0-7.23-2.33-2.68-2.32-2.68-6.16 0-2.47 1.1-4.25 1.08-1.8 3.28-2.82zM878.1 430.06v-28.23h6.4v28.23zM894.62 423.56q1.5.95 3.03 1.45 1.53.52 3 .52 2.45 0 3.76-1.1 1.34-1.08 1.34-3.16 0-1.84-1.53-3-1.5-1.14-4.07-1.14-.63 0-.9.04-.27.02-.82.12-.5.08-.95.18-.45.1-1.13.3V401.8h15.25v5.63H902v4.95l.45-.02.73-.02q4.4 0 6.9 2.44 2.52 2.42 2.52 6.66 0 4.18-2.86 6.64-2.85 2.46-7.75 2.46-2.27 0-4.07-.36-1.8-.36-3.3-1.13zM927.28 418.7l.08-8.68-6.94 8.68zm0 11.36v-6.98h-11.6v-4.76l13.5-16.82h4.17v17.2h2.7v4.38h-2.7v6.98zM945.66 430.06v-28.23h6.42v28.23zM962.2 423.56q1.48.95 3.02 1.45 1.53.52 3 .52 2.45 0 3.76-1.1 1.33-1.08 1.33-3.16 0-1.84-1.52-3-1.52-1.14-4.08-1.14-.63 0-.9.04-.27.02-.82.12-.52.08-.96.18-.45.1-1.13.3V401.8h15.24v5.63h-9.58v4.95l.46-.02.73-.02q4.4 0 6.9 2.44 2.52 2.42 2.52 6.66 0 4.18-2.86 6.64-2.84 2.46-7.74 2.46-2.26 0-4.06-.36-1.8-.36-3.3-1.13z"/></g></svg>